<svg width="22" height="15" viewBox="0 0 22 15" fill="none" xmlns="http://www.w3.org/2000/svg">
<path d="M12.3681 1.076L7.11214 14H5.39314L0.137141 1.076H1.66714C1.83514 1.076 1.97014 1.118 2.07214 1.202C2.18014 1.286 2.26114 1.394 2.31514 1.526L5.80714 10.31C5.89114 10.526 5.97214 10.763 6.05014 11.021C6.13414 11.279 6.20914 11.549 6.27514 11.831C6.33514 11.549 6.40114 11.279 6.47314 11.021C6.54514 10.763 6.62314 10.526 6.70714 10.31L10.1901 1.526C10.2321 1.406 10.3071 1.301 10.4151 1.211C10.5291 1.121 10.6671 1.076 10.8291 1.076H12.3681ZM20.3698 3.182C20.3098 3.284 20.2468 3.359 20.1808 3.407C20.1148 3.455 20.0308 3.479 19.9288 3.479C19.8208 3.479 19.6978 3.431 19.5598 3.335C19.4218 3.233 19.2478 3.122 19.0378 3.002C18.8338 2.876 18.5878 2.765 18.2998 2.669C18.0118 2.567 17.6668 2.516 17.2648 2.516C16.8868 2.516 16.5538 2.567 16.2658 2.669C15.9838 2.765 15.7468 2.9 15.5548 3.074C15.3628 3.242 15.2158 3.443 15.1138 3.677C15.0178 3.905 14.9698 4.154 14.9698 4.424C14.9698 4.772 15.0568 5.06 15.2308 5.288C15.4108 5.516 15.6448 5.711 15.9328 5.873C16.2208 6.035 16.5478 6.176 16.9138 6.296C17.2798 6.416 17.6548 6.542 18.0388 6.674C18.4228 6.8 18.7978 6.947 19.1638 7.115C19.5298 7.283 19.8568 7.496 20.1448 7.754C20.4328 8.006 20.6638 8.318 20.8378 8.69C21.0178 9.056 21.1078 9.506 21.1078 10.04C21.1078 10.61 21.0088 11.144 20.8108 11.642C20.6188 12.14 20.3368 12.575 19.9648 12.947C19.5928 13.319 19.1338 13.613 18.5878 13.829C18.0478 14.039 17.4328 14.144 16.7428 14.144C16.3288 14.144 15.9268 14.102 15.5368 14.018C15.1468 13.94 14.7778 13.829 14.4298 13.685C14.0818 13.535 13.7548 13.358 13.4488 13.154C13.1488 12.944 12.8788 12.71 12.6388 12.452L13.1878 11.534C13.2418 11.462 13.3048 11.402 13.3768 11.354C13.4548 11.306 13.5418 11.282 13.6378 11.282C13.7638 11.282 13.9078 11.348 14.0698 11.48C14.2378 11.612 14.4418 11.759 14.6818 11.921C14.9278 12.077 15.2188 12.221 15.5548 12.353C15.8968 12.485 16.3108 12.551 16.7968 12.551C17.1928 12.551 17.5468 12.5 17.8588 12.398C18.1708 12.29 18.4318 12.14 18.6418 11.948C18.8578 11.75 19.0228 11.513 19.1368 11.237C19.2508 10.961 19.3078 10.655 19.3078 10.319C19.3078 9.941 19.2208 9.632 19.0468 9.392C18.8728 9.152 18.6418 8.951 18.3538 8.789C18.0658 8.627 17.7388 8.489 17.3728 8.375C17.0068 8.261 16.6318 8.144 16.2478 8.024C15.8638 7.898 15.4888 7.754 15.1228 7.592C14.7568 7.43 14.4298 7.22 14.1418 6.962C13.8538 6.698 13.6228 6.371 13.4488 5.981C13.2748 5.585 13.1878 5.099 13.1878 4.523C13.1878 4.061 13.2778 3.614 13.4578 3.182C13.6378 2.75 13.8988 2.369 14.2408 2.039C14.5888 1.703 15.0148 1.436 15.5188 1.238C16.0228 1.034 16.5988 0.932 17.2468 0.932C17.9728 0.932 18.6388 1.049 19.2448 1.283C19.8568 1.511 20.3878 1.841 20.8378 2.273L20.3698 3.182Z" fill="white"/>
</svg>
